<svg width="24" height="24" viewBox="0 0 24 24" fill="none" xmlns="http://www.w3.org/2000/svg">
<path d="M21.1537 0.608304C20.7877 0.216088 20.2831 0 19.7326 0H18.2198C17.1049 0 16.0409 0.893325 15.8482 1.99145L15.7527 2.53452C15.6568 3.08098 15.7859 3.59858 16.1163 3.99199C16.4467 4.38541 16.9341 4.60199 17.4889 4.60199H19.4431C19.7143 4.60199 19.9765 4.54785 20.2202 4.45174L20.0125 6.2261C19.8126 6.14209 19.5931 6.09733 19.3624 6.09733H17.1328C16.1776 6.09733 15.2394 6.85749 15.0412 7.79177L13.07 17.0854L3.76918 16.417C3.26657 16.3811 2.84698 16.5514 2.58684 16.8859C2.34318 17.1992 2.27195 17.6194 2.38613 18.0694L3.46748 22.327C3.70175 23.2494 4.6667 24 5.61837 24H13.4156H13.5346H17.5036C18.468 24 19.3354 23.2197 19.4371 22.2606L20.9628 7.87659C20.9715 7.79437 20.9725 7.71335 20.9697 7.63313L21.4919 3.17269C21.5657 2.98058 21.6125 2.77638 21.6272 2.56459L21.6618 2.06807C21.7001 1.51901 21.5196 1.00062 21.1537 0.608304Z" fill="#4B677A"/>
</svg>
