<svg width="24" height="24" viewBox="0 0 24 24" fill="none" xmlns="http://www.w3.org/2000/svg">
<path d="M21.493 8.57198C21.2292 8.57198 21.0154 8.78578 21.0154 9.04957V11.8837H20.0444V9.48965C20.0444 9.22586 19.8306 9.01206 19.5668 9.01206H17.3509L16.9382 7.63604C16.8776 7.43402 16.6916 7.29567 16.4807 7.29567H13.107V6.08735H15.2313C15.4951 6.08735 15.7089 5.87355 15.7089 5.60975V4.01532C15.7089 3.75152 15.4951 3.53772 15.2313 3.53772H8.3879C8.1241 3.53772 7.9103 3.75152 7.9103 4.01532V5.60981C7.9103 5.8736 8.1241 6.0874 8.3879 6.0874H10.5122V7.29573H5.5922C5.41724 7.29573 5.25629 7.39135 5.17271 7.54503L4.37438 9.01211H2.50617C2.24238 9.01211 2.02857 9.22591 2.02857 9.48971V11.8837H0.955196V8.46935C0.955196 8.20555 0.741392 7.99175 0.477598 7.99175C0.213805 7.99175 0 8.20555 0 8.46935V18.3401C0 18.6039 0.213805 18.8177 0.477598 18.8177C0.741392 18.8177 0.955196 18.6039 0.955196 18.3401V14.9257H2.02857V17.4538C2.02857 17.7176 2.24238 17.9314 2.50617 17.9314H6.48276L8.30082 20.2773C8.39129 20.3941 8.53065 20.4624 8.67833 20.4624H19.5668C19.8306 20.4624 20.0444 20.2486 20.0444 19.9848V14.9258H21.0154V17.7599C21.0154 18.0237 21.2292 18.2375 21.493 18.2375C22.8754 18.2375 24 17.1129 24 15.7305V11.0792C24 9.69667 22.8754 8.57198 21.493 8.57198ZM0.955196 13.9705V12.8389H2.02857V13.9705H0.955196ZM8.8655 4.49292H14.7537V5.13221H8.8655V4.49292ZM11.4675 6.0874H12.1518V7.29573H11.4675V6.0874ZM2.98377 9.96725H3.32313V16.9762H2.98377V9.96725ZM7.09435 17.1612C7.00387 17.0445 6.86452 16.9762 6.71684 16.9762H4.27833V9.96725H4.65823C4.83319 9.96725 4.99414 9.87163 5.07772 9.71795L5.87605 8.25087H16.1253L16.5381 9.62688C16.5987 9.82891 16.7846 9.96725 16.9955 9.96725H17.8526V19.5071H8.91241L7.09435 17.1612ZM19.0892 19.5071H18.8078V9.96725H19.0892V19.5071ZM20.0444 13.9705V12.8389H21.0154V13.9705H20.0444ZM23.0448 15.7304C23.0448 16.4195 22.5933 17.0051 21.9706 17.2071V9.60237C22.5933 9.80423 23.0448 10.3899 23.0448 11.079V15.7304Z" fill="#4B677A"/>
</svg>
