<svg width="64" height="64" viewBox="0 0 64 64" fill="none" xmlns="http://www.w3.org/2000/svg">
<path d="M18.2987 47.5624C18.8729 47.1366 32.5058 37.2558 46.326 47.5624L48.7166 44.3554C32.4686 32.2333 16.0681 44.2363 15.9041 44.3573L18.2987 47.5624Z" fill="#7D94A5"/>
<path d="M18.0468 29.8788L21.7402 26.1851L25.4335 29.8788L28.2617 27.0507L24.5682 23.357L28.2617 19.6631L25.4335 16.835L21.7402 20.5287L18.0468 16.835L15.2188 19.6631L18.9122 23.357L15.2188 27.0507L18.0468 29.8788Z" fill="#7D94A5"/>
<path d="M38.5664 29.8788L42.2597 26.1851L45.9532 29.8788L48.7812 27.0507L45.0878 23.357L48.7812 19.6631L45.9532 16.835L42.2597 20.5287L38.5664 16.835L35.7383 19.6631L39.4317 23.357L35.7383 27.0507L38.5664 29.8788Z" fill="#7D94A5"/>
<path d="M9.02348 64H54.9767C59.9511 64 64 59.9511 64 54.9765V9.02348C64 4.0478 59.9511 0 54.9765 0H9.02348C4.04885 0 0 4.0478 0 9.02348V54.9767C0 59.9511 4.04885 64 9.02348 64ZM4 9.02348C4 6.25397 6.25384 4 9.02348 4H54.9767C57.7462 4 60.0001 6.25397 60.0001 9.02348V54.9767C60.0001 57.7462 57.7462 60.0001 54.9767 60.0001H9.02348C6.25397 60.0001 4 57.7462 4 54.9767V9.02348Z" fill="#7D94A5"/>
</svg>
